<svg width="101" height="44" viewBox="0 0 101 44" fill="none" xmlns="http://www.w3.org/2000/svg">
<g filter="url(#filter0_d)">
<path d="M2 4C2 2.89543 2.89543 2 4 2H97C98.1046 2 99 2.89543 99 4V40C99 41.1046 98.1046 42 97 42H4C2.89543 42 2 41.1046 2 40V4Z" fill="white"/>
<g clip-path="url(#clip0)">
<path d="M32.4201 24.9672H23.1154L23.5826 24.0156L31.3451 24.0016C31.6076 24.0016 31.8326 23.8141 31.8794 23.5547L32.9544 17.5375C32.9826 17.3797 32.9404 17.2172 32.8372 17.0938C32.7863 17.033 32.7227 16.9841 32.6509 16.9503C32.5792 16.9166 32.5009 16.8989 32.4216 16.8984L22.5466 16.8656L22.4622 16.4688C22.4091 16.2156 22.181 16.0312 21.9216 16.0312H19.5076C19.3613 16.0312 19.221 16.0894 19.1175 16.1928C19.0141 16.2962 18.956 16.4365 18.956 16.5828C18.956 16.7291 19.0141 16.8694 19.1175 16.9728C19.221 17.0763 19.3613 17.1344 19.5076 17.1344H21.4747L21.8435 18.8875L22.7513 23.2828L21.5826 25.1906C21.5219 25.2725 21.4853 25.3698 21.477 25.4714C21.4687 25.573 21.4891 25.675 21.5357 25.7656C21.6294 25.9516 21.8185 26.0688 22.0279 26.0688H23.0091C22.7999 26.3466 22.6869 26.685 22.6872 27.0328C22.6872 27.9172 23.406 28.6359 24.2904 28.6359C25.1747 28.6359 25.8935 27.9172 25.8935 27.0328C25.8935 26.6844 25.7779 26.3453 25.5716 26.0688H28.0888C27.8796 26.3466 27.7666 26.685 27.7669 27.0328C27.7669 27.9172 28.4857 28.6359 29.3701 28.6359C30.2544 28.6359 30.9732 27.9172 30.9732 27.0328C30.9732 26.6844 30.8576 26.3453 30.6513 26.0688H32.4216C32.7247 26.0688 32.9732 25.8219 32.9732 25.5172C32.9723 25.3711 32.9136 25.2312 32.81 25.1282C32.7064 25.0251 32.5662 24.9673 32.4201 24.9672ZM22.7763 17.9531L31.7732 17.9828L30.8919 22.9172L23.8247 22.9297L22.7763 17.9531ZM24.2904 27.5266C24.0185 27.5266 23.7966 27.3047 23.7966 27.0328C23.7966 26.7609 24.0185 26.5391 24.2904 26.5391C24.5622 26.5391 24.7841 26.7609 24.7841 27.0328C24.7841 27.1638 24.7321 27.2894 24.6395 27.3819C24.5469 27.4745 24.4213 27.5266 24.2904 27.5266ZM29.3701 27.5266C29.0982 27.5266 28.8763 27.3047 28.8763 27.0328C28.8763 26.7609 29.0982 26.5391 29.3701 26.5391C29.6419 26.5391 29.8638 26.7609 29.8638 27.0328C29.8638 27.1638 29.8118 27.2894 29.7192 27.3819C29.6266 27.4745 29.501 27.5266 29.3701 27.5266Z" fill="#8C8C8C"/>
<path d="M38.1172 22.1172L43.7656 28H41.8359L36.6328 22.5234H36.5703V28H35.1641V16.7266H36.5703V21.9219H36.6328L41.4766 16.7266H43.2422L38.1172 22.1172ZM47.8047 28.1406C46.6693 28.1406 45.7578 27.763 45.0703 27.0078C44.3828 26.2474 44.0391 25.224 44.0391 23.9375C44.0391 22.651 44.3828 21.6302 45.0703 20.875C45.7578 20.1146 46.6693 19.7344 47.8047 19.7344C48.9349 19.7344 49.8438 20.1146 50.5312 20.875C51.2188 21.6302 51.5625 22.651 51.5625 23.9375C51.5625 25.2188 51.2188 26.2396 50.5312 27C49.8438 27.7604 48.9349 28.1406 47.8047 28.1406ZM46.0625 26.1484C46.4948 26.6797 47.0755 26.9453 47.8047 26.9453C48.5339 26.9453 49.112 26.6823 49.5391 26.1562C49.9661 25.625 50.1797 24.8854 50.1797 23.9375C50.1797 22.9896 49.9661 22.2526 49.5391 21.7266C49.112 21.1953 48.5339 20.9297 47.8047 20.9297C47.0755 20.9297 46.4948 21.1953 46.0625 21.7266C45.6354 22.2578 45.4219 22.9948 45.4219 23.9375C45.4219 24.8802 45.6354 25.6172 46.0625 26.1484ZM57.0234 19.7344C58.0651 19.7344 58.9036 20.1172 59.5391 20.8828C60.1797 21.6484 60.5 22.6667 60.5 23.9375C60.5 25.2031 60.1823 26.2214 59.5469 26.9922C58.9115 27.7578 58.0807 28.1406 57.0547 28.1406C56.4818 28.1406 55.9688 28.0104 55.5156 27.75C55.0625 27.4896 54.7135 27.1328 54.4688 26.6797H54.4375V30.7109H53.0781V19.875H54.3672V21.25H54.3984C54.6536 20.7812 55.0104 20.4115 55.4688 20.1406C55.9271 19.8698 56.4453 19.7344 57.0234 19.7344ZM56.7578 26.9453C57.4818 26.9453 58.0547 26.6745 58.4766 26.1328C58.8984 25.5911 59.1094 24.8594 59.1094 23.9375C59.1094 23.0156 58.8984 22.2839 58.4766 21.7422C58.0547 21.2005 57.4818 20.9297 56.7578 20.9297C56.0599 20.9297 55.4974 21.2057 55.0703 21.7578C54.6432 22.3099 54.4297 23.0365 54.4297 23.9375C54.4297 24.8438 54.6432 25.5729 55.0703 26.125C55.4974 26.6719 56.0599 26.9453 56.7578 26.9453ZM64.7188 28.1406C63.8229 28.1406 63.0807 27.9375 62.4922 27.5312C61.9036 27.1198 61.5755 26.5729 61.5078 25.8906H62.8828C62.9609 26.2448 63.1589 26.5208 63.4766 26.7188C63.7995 26.9167 64.2135 27.0156 64.7188 27.0156C65.2969 27.0156 65.7474 26.8932 66.0703 26.6484C66.3932 26.3984 66.5547 26.0703 66.5547 25.6641C66.5547 25.2109 66.4036 24.8776 66.1016 24.6641C65.7995 24.4453 65.3385 24.3359 64.7188 24.3359H63.5V23.2266H64.7188C65.7604 23.2266 66.2812 22.8307 66.2812 22.0391C66.2812 21.6849 66.151 21.401 65.8906 21.1875C65.6354 20.974 65.2552 20.8672 64.75 20.8672C64.2708 20.8672 63.875 20.9635 63.5625 21.1562C63.25 21.349 63.0651 21.6068 63.0078 21.9297H61.6875C61.776 21.2578 62.0938 20.724 62.6406 20.3281C63.1875 19.9323 63.8906 19.7344 64.75 19.7344C65.6562 19.7344 66.3594 19.9349 66.8594 20.3359C67.3594 20.7318 67.6094 21.263 67.6094 21.9297C67.6094 22.3464 67.4844 22.7188 67.2344 23.0469C66.9896 23.375 66.6667 23.5859 66.2656 23.6797V23.7422C66.7917 23.8568 67.1927 24.0781 67.4688 24.4062C67.75 24.7292 67.8906 25.1276 67.8906 25.6016C67.8906 26.362 67.599 26.9766 67.0156 27.4453C66.4375 27.9089 65.6719 28.1406 64.7188 28.1406ZM70.7891 28H69.4453V19.875H70.7891V25.9219H70.8516L74.9141 19.875H76.2578V28H74.9141V21.9531H74.8516L70.7891 28ZM83.5156 28V24.3438H79.5078V28H78.1641V19.875H79.5078V23.2266H83.5156V19.875H84.8594V28H83.5156ZM89.4609 26.9844C90.1016 26.9844 90.638 26.7865 91.0703 26.3906C91.5078 25.9896 91.7266 25.4974 91.7266 24.9141V24.25L89.5547 24.3828C89.0078 24.4193 88.5833 24.5521 88.2812 24.7812C87.9844 25.0104 87.8359 25.3177 87.8359 25.7031C87.8359 26.0885 87.9844 26.3984 88.2812 26.6328C88.5781 26.8672 88.9714 26.9844 89.4609 26.9844ZM89.1562 28.1406C88.349 28.1406 87.6953 27.9167 87.1953 27.4688C86.7005 27.0208 86.4531 26.4323 86.4531 25.7031C86.4531 25.0052 86.7083 24.4479 87.2188 24.0312C87.7344 23.6146 88.4609 23.3802 89.3984 23.3281L91.7266 23.1953V22.5156C91.7266 22.0208 91.5703 21.6328 91.2578 21.3516C90.9453 21.0703 90.5078 20.9297 89.9453 20.9297C89.4297 20.9297 89.0104 21.0443 88.6875 21.2734C88.3646 21.4974 88.1589 21.8125 88.0703 22.2188H86.7578C86.8047 21.4948 87.1172 20.901 87.6953 20.4375C88.2786 19.9688 89.0391 19.7344 89.9766 19.7344C90.9297 19.7344 91.6849 19.974 92.2422 20.4531C92.8047 20.9323 93.0859 21.5755 93.0859 22.3828V28H91.7969V26.6016H91.7656C91.5208 27.0651 91.1615 27.4375 90.6875 27.7188C90.2135 28 89.7031 28.1406 89.1562 28.1406Z" fill="#595959"/>
</g>
<path d="M4 3H97V1H4V3ZM98 4V40H100V4H98ZM97 41H4V43H97V41ZM3 40V4H1V40H3ZM4 41C3.44772 41 3 40.5523 3 40H1C1 41.6569 2.34315 43 4 43V41ZM98 40C98 40.5523 97.5523 41 97 41V43C98.6569 43 100 41.6569 100 40H98ZM97 3C97.5523 3 98 3.44772 98 4H100C100 2.34315 98.6569 1 97 1V3ZM4 1C2.34315 1 1 2.34315 1 4H3C3 3.44772 3.44772 3 4 3V1Z" fill="#D9D9D9"/>
</g>
<defs>
<filter id="filter0_d" x="0" y="0" width="101" height="44" filterUnits="userSpaceOnUse" color-interpolation-filters="sRGB">
<feFlood flood-opacity="0" result="BackgroundImageFix"/>
<feColorMatrix in="SourceAlpha" type="matrix" values="0 0 0 0 0 0 0 0 0 0 0 0 0 0 0 0 0 0 127 0" result="hardAlpha"/>
<feOffset/>
<feGaussianBlur stdDeviation="1"/>
<feColorMatrix type="matrix" values="0 0 0 0 0 0 0 0 0 0 0 0 0 0 0 0 0 0 0.01 0"/>
<feBlend mode="normal" in2="BackgroundImageFix" result="effect1_dropShadow"/>
<feBlend mode="normal" in="SourceGraphic" in2="effect1_dropShadow" result="shape"/>
</filter>
<clipPath id="clip0">
<rect width="65" height="24" fill="white" transform="translate(18 10)"/>
</clipPath>
</defs>
</svg>
