<svg width="97" height="40" viewBox="0 0 97 40" fill="none" xmlns="http://www.w3.org/2000/svg">
<path d="M0 2C0 0.895431 0.89543 0 2 0H95C96.1046 0 97 0.895431 97 2V38C97 39.1046 96.1046 40 95 40H2C0.895431 40 0 39.1046 0 38V2Z" fill="#1890FF"/>
<path d="M29.4145 23.9312C29.1197 23.2331 28.692 22.5989 28.1551 22.0641C27.6198 21.5277 26.9858 21.1 26.2879 20.8047C26.2817 20.8016 26.2754 20.8 26.2692 20.7969C27.2426 20.0938 27.8754 18.9484 27.8754 17.6562C27.8754 15.5156 26.141 13.7812 24.0004 13.7812C21.8598 13.7812 20.1254 15.5156 20.1254 17.6562C20.1254 18.9484 20.7582 20.0937 21.7317 20.7984C21.7254 20.8016 21.7192 20.8031 21.7129 20.8062C21.0129 21.1016 20.3848 21.525 19.8457 22.0656C19.3093 22.6009 18.8817 23.235 18.5863 23.9328C18.2962 24.616 18.1398 25.3485 18.1254 26.0906C18.125 26.1073 18.1279 26.1239 18.134 26.1394C18.1401 26.1549 18.1492 26.1691 18.1609 26.181C18.1725 26.193 18.1865 26.2025 18.2018 26.2089C18.2172 26.2154 18.2337 26.2188 18.2504 26.2188H19.1879C19.2567 26.2188 19.3113 26.1641 19.3129 26.0969C19.3442 24.8906 19.8285 23.7609 20.6848 22.9047C21.5707 22.0188 22.7473 21.5312 24.0004 21.5312C25.2535 21.5312 26.4301 22.0188 27.316 22.9047C28.1723 23.7609 28.6567 24.8906 28.6879 26.0969C28.6895 26.1656 28.7442 26.2188 28.8129 26.2188H29.7504C29.7671 26.2188 29.7836 26.2154 29.799 26.2089C29.8143 26.2025 29.8283 26.193 29.8399 26.181C29.8516 26.1691 29.8607 26.1549 29.8668 26.1394C29.8729 26.1239 29.8758 26.1073 29.8754 26.0906C29.8598 25.3438 29.7051 24.6172 29.4145 23.9312ZM24.0004 20.3438C23.2832 20.3438 22.6082 20.0641 22.1004 19.5563C21.5926 19.0484 21.3129 18.3734 21.3129 17.6562C21.3129 16.9391 21.5926 16.2641 22.1004 15.7562C22.6082 15.2484 23.2832 14.9688 24.0004 14.9688C24.7176 14.9688 25.3926 15.2484 25.9004 15.7562C26.4082 16.2641 26.6879 16.9391 26.6879 17.6562C26.6879 18.3734 26.4082 19.0484 25.9004 19.5563C25.3926 20.0641 24.7176 20.3438 24.0004 20.3438Z" fill="white"/>
<path d="M37.375 26H33.1172V14.7266H37.3906C38.3542 14.7266 39.1328 14.9844 39.7266 15.5C40.3255 16.0156 40.625 16.6953 40.625 17.5391C40.625 18.1276 40.4349 18.6615 40.0547 19.1406C39.6797 19.6146 39.2214 19.901 38.6797 20V20.0625C39.4453 20.1615 40.0547 20.4609 40.5078 20.9609C40.9661 21.4609 41.1953 22.0859 41.1953 22.8359C41.1953 23.8307 40.8568 24.6068 40.1797 25.1641C39.5078 25.7214 38.5729 26 37.375 26ZM34.5234 15.9688V19.5859H36.6328C37.4661 19.5859 38.1016 19.4245 38.5391 19.1016C38.9818 18.7786 39.2031 18.3125 39.2031 17.7031C39.2031 17.1458 39.0182 16.7188 38.6484 16.4219C38.2786 16.1198 37.7526 15.9688 37.0703 15.9688H34.5234ZM34.5234 24.7578H37.1641C38.013 24.7578 38.6562 24.5885 39.0938 24.25C39.5312 23.9115 39.75 23.4167 39.75 22.7656C39.75 21.4531 38.8438 20.7969 37.0312 20.7969H34.5234V24.7578ZM46.1016 26.1406C44.9661 26.1406 44.0547 25.763 43.3672 25.0078C42.6797 24.2474 42.3359 23.224 42.3359 21.9375C42.3359 20.651 42.6797 19.6302 43.3672 18.875C44.0547 18.1146 44.9661 17.7344 46.1016 17.7344C47.2318 17.7344 48.1406 18.1146 48.8281 18.875C49.5156 19.6302 49.8594 20.651 49.8594 21.9375C49.8594 23.2188 49.5156 24.2396 48.8281 25C48.1406 25.7604 47.2318 26.1406 46.1016 26.1406ZM44.3594 24.1484C44.7917 24.6797 45.3724 24.9453 46.1016 24.9453C46.8307 24.9453 47.4089 24.6823 47.8359 24.1562C48.263 23.625 48.4766 22.8854 48.4766 21.9375C48.4766 20.9896 48.263 20.2526 47.8359 19.7266C47.4089 19.1953 46.8307 18.9297 46.1016 18.9297C45.3724 18.9297 44.7917 19.1953 44.3594 19.7266C43.9323 20.2578 43.7188 20.9948 43.7188 21.9375C43.7188 22.8802 43.9323 23.6172 44.3594 24.1484ZM52.7109 26H51.3672V17.875H52.7109V23.9219H52.7734L56.8359 17.875H58.1797V26H56.8359V19.9531H56.7734L52.7109 26ZM52.4062 14.3594H53.4062C53.4062 14.8229 53.5443 15.2083 53.8203 15.5156C54.1016 15.8229 54.4688 15.9766 54.9219 15.9766C55.375 15.9766 55.7396 15.8229 56.0156 15.5156C56.2969 15.2083 56.4375 14.8229 56.4375 14.3594H57.4375C57.4375 15.0781 57.2031 15.6615 56.7344 16.1094C56.2708 16.5573 55.6667 16.7812 54.9219 16.7812C54.1771 16.7812 53.5703 16.5573 53.1016 16.1094C52.638 15.6615 52.4062 15.0781 52.4062 14.3594ZM66.0312 17.875V18.9922H63.4062V26H62.0625V18.9922H59.4375V17.875H66.0312ZM68.6328 26H67.2891V17.875H68.6328V23.9219H68.6953L72.7578 17.875H74.1016V26H72.7578V19.9531H72.6953L68.6328 26Z" fill="white"/>
</svg>
